STARTFONT 2.1
COMMENT Recovered from arc.ast's:CYR12 AST (MIT CADR AST source recovered from ARC!!!)
FONT MIT-CADR-CYR12
SIZE 15 72 72
FONTBOUNDINGBOX 16 15 0 -3
STARTPROPERTIES 2
FONT_ASCENT 12
FONT_DESCENT 3
ENDPROPERTIES
CHARS 80
STARTCHAR C0020
ENCODING -1 32
SWIDTH 467 0
DWIDTH 7 0
BBX 16 15 0 -3
BITMAP
0000
0000
0000
0000
0000
0000
0000
0000
0000
0000
0000
0000
0000
0000
0000
ENDCHAR
STARTCHAR C0021
ENCODING -1 33
SWIDTH 200 0
DWIDTH 3 0
BBX 16 15 0 -3
BITMAP
0000
0000
4000
4000
4000
4000
4000
4000
4000
0000
4000
4000
0000
0000
0000
ENDCHAR
STARTCHAR C0022
ENCODING -1 34
SWIDTH 333 0
DWIDTH 5 0
BBX 16 15 0 -3
BITMAP
0000
0000
0000
5000
5000
5000
0000
0000
0000
0000
0000
0000
0000
0000
0000
ENDCHAR
STARTCHAR C0024
ENCODING -1 36
SWIDTH 600 0
DWIDTH 9 0
BBX 16 15 0 -3
BITMAP
2200
2200
0000
7F00
2100
2100
2400
3C00
2400
2100
2100
7F00
0000
0000
0000
ENDCHAR
STARTCHAR C0027
ENCODING -1 39
SWIDTH 200 0
DWIDTH 3 0
BBX 16 15 0 -3
BITMAP
0000
0000
0000
4000
4000
4000
0000
0000
0000
0000
0000
0000
0000
0000
0000
ENDCHAR
STARTCHAR C0028
ENCODING -1 40
SWIDTH 333 0
DWIDTH 5 0
BBX 16 15 0 -3
BITMAP
0000
0000
0000
1000
2000
4000
4000
4000
4000
4000
4000
2000
1000
0000
0000
ENDCHAR
STARTCHAR C0029
ENCODING -1 41
SWIDTH 333 0
DWIDTH 5 0
BBX 16 15 0 -3
BITMAP
0000
0000
0000
4000
2000
1000
1000
1000
1000
1000
1000
2000
4000
0000
0000
ENDCHAR
STARTCHAR C002A
ENCODING -1 42
SWIDTH 667 0
DWIDTH 10 0
BBX 16 15 0 -3
BITMAP
0000
0000
0000
7380
2100
2100
2100
2100
1F00
0100
0100
0380
0000
0000
0000
ENDCHAR
STARTCHAR C002C
ENCODING -1 44
SWIDTH 267 0
DWIDTH 4 0
BBX 16 15 0 -3
BITMAP
0000
0000
0000
0000
0000
0000
0000
0000
0000
0000
6000
6000
2000
2000
0000
ENDCHAR
STARTCHAR C002D
ENCODING -1 45
SWIDTH 400 0
DWIDTH 6 0
BBX 16 15 0 -3
BITMAP
0000
0000
0000
0000
0000
0000
0000
0000
7800
0000
0000
0000
0000
0000
0000
ENDCHAR
STARTCHAR C002E
ENCODING -1 46
SWIDTH 333 0
DWIDTH 5 0
BBX 16 15 0 -3
BITMAP
0000
0000
0000
0000
0000
0000
0000
0000
0000
0000
6000
6000
0000
0000
0000
ENDCHAR
STARTCHAR C0032
ENCODING -1 50
SWIDTH 467 0
DWIDTH 7 0
BBX 16 15 0 -3
BITMAP
0000
0000
0000
0000
0000
0000
3800
4400
1C00
0400
4400
3800
0000
0000
0000
ENDCHAR
STARTCHAR C0034
ENCODING -1 52
SWIDTH 467 0
DWIDTH 7 0
BBX 16 15 0 -3
BITMAP
0000
0000
0000
4800
4800
0000
3800
4400
7C00
4000
4400
3800
0000
0000
0000
ENDCHAR
STARTCHAR C0036
ENCODING -1 54
SWIDTH 533 0
DWIDTH 8 0
BBX 16 15 0 -3
BITMAP
0000
0000
0000
0000
0000
0000
6600
2400
2400
2400
2400
7E00
0200
0200
0000
ENDCHAR
STARTCHAR C0038
ENCODING -1 56
SWIDTH 533 0
DWIDTH 8 0
BBX 16 15 0 -3
BITMAP
0000
0000
0000
0000
0000
0000
6600
2400
2400
3C00
0400
0E00
0000
0000
0000
ENDCHAR
STARTCHAR C003A
ENCODING -1 58
SWIDTH 267 0
DWIDTH 4 0
BBX 16 15 0 -3
BITMAP
0000
0000
0000
0000
0000
0000
6000
6000
0000
0000
6000
6000
0000
0000
0000
ENDCHAR
STARTCHAR C003B
ENCODING -1 59
SWIDTH 267 0
DWIDTH 4 0
BBX 16 15 0 -3
BITMAP
0000
0000
0000
0000
0000
0000
6000
6000
0000
0000
6000
6000
2000
2000
0000
ENDCHAR
STARTCHAR C003C
ENCODING -1 60
SWIDTH 600 0
DWIDTH 9 0
BBX 16 15 0 -3
BITMAP
0000
0000
0000
0000
0000
0900
1200
2400
4800
2400
1200
0900
0000
0000
0000
ENDCHAR
STARTCHAR C003E
ENCODING -1 62
SWIDTH 600 0
DWIDTH 9 0
BBX 16 15 0 -3
BITMAP
0000
0000
0000
0000
0000
4800
2400
1200
0900
1200
2400
4800
0000
0000
0000
ENDCHAR
STARTCHAR C003F
ENCODING -1 63
SWIDTH 533 0
DWIDTH 8 0
BBX 16 15 0 -3
BITMAP
0000
0000
0000
3C00
4200
4200
0200
1C00
1000
0000
1000
1000
0000
0000
0000
ENDCHAR
STARTCHAR C0040
ENCODING -1 64
SWIDTH 533 0
DWIDTH 8 0
BBX 16 15 0 -3
BITMAP
0000
0000
0000
5C00
6200
4200
0200
1E00
0200
6200
4200
3C00
0000
0000
0000
ENDCHAR
STARTCHAR C0041
ENCODING -1 65
SWIDTH 733 0
DWIDTH 11 0
BBX 16 15 0 -3
BITMAP
0000
0000
0000
0400
0400
0A00
0A00
1100
1100
3F80
2080
71C0
0000
0000
0000
ENDCHAR
STARTCHAR C0042
ENCODING -1 66
SWIDTH 667 0
DWIDTH 10 0
BBX 16 15 0 -3
BITMAP
0000
0000
0000
7F00
2100
2100
2000
3F00
2080
2080
2080
7F00
0000
0000
0000
ENDCHAR
STARTCHAR C0043
ENCODING -1 67
SWIDTH 600 0
DWIDTH 9 0
BBX 16 15 0 -3
BITMAP
0000
0000
0000
7000
2000
2000
2000
3E00
2100
2100
2100
7E00
0000
0000
0000
ENDCHAR
STARTCHAR C0044
ENCODING -1 68
SWIDTH 667 0
DWIDTH 10 0
BBX 16 15 0 -3
BITMAP
0000
0000
0000
3F80
1100
1100
1100
1100
2100
2100
2100
7F80
4080
4080
0000
ENDCHAR
STARTCHAR C0045
ENCODING -1 69
SWIDTH 600 0
DWIDTH 9 0
BBX 16 15 0 -3
BITMAP
0000
0000
0000
7F00
2100
2100
2400
3C00
2400
2100
2100
7F00
0000
0000
0000
ENDCHAR
STARTCHAR C0046
ENCODING -1 70
SWIDTH 733 0
DWIDTH 11 0
BBX 16 15 0 -3
BITMAP
0000
0000
0000
0E00
0400
3F80
4440
4440
4440
3F80
0400
0E00
0000
0000
0000
ENDCHAR
STARTCHAR C0047
ENCODING -1 71
SWIDTH 533 0
DWIDTH 8 0
BBX 16 15 0 -3
BITMAP
0000
0000
0000
7F00
2100
2100
2000
2000
2000
2000
2000
7000
0000
0000
0000
ENDCHAR
STARTCHAR C0048
ENCODING -1 72
SWIDTH 667 0
DWIDTH 10 0
BBX 16 15 0 -3
BITMAP
0000
0000
0000
1F80
2100
2100
2100
1F00
1100
1100
2100
6380
0000
0000
0000
ENDCHAR
STARTCHAR C0049
ENCODING -1 73
SWIDTH 667 0
DWIDTH 10 0
BBX 16 15 0 -3
BITMAP
0000
0000
0000
7180
2100
2300
2500
2500
2900
2900
3100
6380
0000
0000
0000
ENDCHAR
STARTCHAR C004A
ENCODING -1 74
SWIDTH 667 0
DWIDTH 10 0
BBX 16 15 0 -3
BITMAP
1100
0E00
0000
7180
2300
2500
2500
2900
2900
3100
2100
7380
0000
0000
0000
ENDCHAR
STARTCHAR C004B
ENCODING -1 75
SWIDTH 667 0
DWIDTH 10 0
BBX 16 15 0 -3
BITMAP
0000
0000
0000
7180
2280
2200
2400
3C00
2200
2100
2100
7180
0000
0000
0000
ENDCHAR
STARTCHAR C004C
ENCODING -1 76
SWIDTH 667 0
DWIDTH 10 0
BBX 16 15 0 -3
BITMAP
0000
0000
0000
3F80
1100
1100
1100
1100
1100
1100
D100
9380
6000
0000
0000
ENDCHAR
STARTCHAR C004D
ENCODING -1 77
SWIDTH 867 0
DWIDTH 13 0
BBX 16 15 0 -3
BITMAP
0000
0000
0000
6030
3060
3060
28A0
28A0
2520
2520
2220
7270
0000
0000
0000
ENDCHAR
STARTCHAR C004E
ENCODING -1 78
SWIDTH 667 0
DWIDTH 10 0
BBX 16 15 0 -3
BITMAP
0000
0000
0000
7380
2100
2100
2100
3F00
2100
2100
2100
7380
0000
0000
0000
ENDCHAR
STARTCHAR C004F
ENCODING -1 79
SWIDTH 667 0
DWIDTH 10 0
BBX 16 15 0 -3
BITMAP
0000
0000
0000
1E00
2100
4080
4080
4080
4080
4080
2100
1E00
0000
0000
0000
ENDCHAR
STARTCHAR C0050
ENCODING -1 80
SWIDTH 667 0
DWIDTH 10 0
BBX 16 15 0 -3
BITMAP
0000
0000
0000
7F80
2100
2100
2100
2100
2100
2100
2100
7380
0000
0000
0000
ENDCHAR
STARTCHAR C0051
ENCODING -1 81
SWIDTH 733 0
DWIDTH 11 0
BBX 16 15 0 -3
BITMAP
0000
0000
0000
71C0
2080
1100
0A00
0400
0A00
1100
2080
71C0
0000
0000
0000
ENDCHAR
STARTCHAR C0052
ENCODING -1 82
SWIDTH 600 0
DWIDTH 9 0
BBX 16 15 0 -3
BITMAP
0000
0000
0000
7E00
2100
2100
2100
2100
3E00
2000
2000
7000
0000
0000
0000
ENDCHAR
STARTCHAR C0053
ENCODING -1 83
SWIDTH 600 0
DWIDTH 9 0
BBX 16 15 0 -3
BITMAP
0000
0000
0000
1D00
2300
4100
4000
4000
4100
4100
2300
1D00
0000
0000
0000
ENDCHAR
STARTCHAR C0054
ENCODING -1 84
SWIDTH 600 0
DWIDTH 9 0
BBX 16 15 0 -3
BITMAP
0000
0000
0000
7F00
4900
4900
0800
0800
0800
0800
0800
1C00
0000
0000
0000
ENDCHAR
STARTCHAR C0055
ENCODING -1 85
SWIDTH 667 0
DWIDTH 10 0
BBX 16 15 0 -3
BITMAP
0000
0000
0000
7380
2100
1100
1200
0A00
0A00
0400
2400
1800
0000
0000
0000
ENDCHAR
STARTCHAR C0056
ENCODING -1 86
SWIDTH 667 0
DWIDTH 10 0
BBX 16 15 0 -3
BITMAP
0000
0000
0000
7E00
2100
2100
2100
3F00
2080
2080
2080
7F00
0000
0000
0000
ENDCHAR
STARTCHAR C0057
ENCODING -1 87
SWIDTH 867 0
DWIDTH 13 0
BBX 16 15 0 -3
BITMAP
0000
0000
0000
6730
5250
1240
0A80
0F80
1240
2220
2220
6730
0000
0000
0000
ENDCHAR
STARTCHAR C0058
ENCODING -1 88
SWIDTH 867 0
DWIDTH 13 0
BBX 16 15 0 -3
BITMAP
0000
0000
0000
7070
2020
2020
2020
3E20
2120
2120
2120
7E70
0000
0000
0000
ENDCHAR
STARTCHAR C0059
ENCODING -1 89
SWIDTH 867 0
DWIDTH 13 0
BBX 16 15 0 -3
BITMAP
0000
0000
0000
71C0
2220
2410
2410
3C10
2410
2410
2220
71C0
0000
0000
0000
ENDCHAR
STARTCHAR C005A
ENCODING -1 90
SWIDTH 533 0
DWIDTH 8 0
BBX 16 15 0 -3
BITMAP
0000
0000
0000
5C00
6200
4200
0400
1C00
0200
6200
4200
3C00
0000
0000
0000
ENDCHAR
STARTCHAR C005B
ENCODING -1 91
SWIDTH 733 0
DWIDTH 11 0
BBX 16 15 0 -3
BITMAP
0000
0000
0000
0000
0000
0000
6EC0
2480
2480
2480
2480
7FC0
0000
0000
0000
ENDCHAR
STARTCHAR C005D
ENCODING -1 93
SWIDTH 733 0
DWIDTH 11 0
BBX 16 15 0 -3
BITMAP
0000
0000
0000
0000
0000
0000
6EC0
2480
2480
2480
2480
7FC0
0040
0040
0000
ENDCHAR
STARTCHAR C005E
ENCODING -1 94
SWIDTH 733 0
DWIDTH 11 0
BBX 16 15 0 -3
BITMAP
0000
0000
0000
7C00
4800
4800
0800
0F80
0840
0840
0840
1F80
0000
0000
0000
ENDCHAR
STARTCHAR C005F
ENCODING -1 95
SWIDTH 533 0
DWIDTH 8 0
BBX 16 15 0 -3
BITMAP
0000
0000
0000
0000
0000
0000
7000
5000
1C00
1200
1200
3C00
0000
0000
0000
ENDCHAR
STARTCHAR C0061
ENCODING -1 97
SWIDTH 467 0
DWIDTH 7 0
BBX 16 15 0 -3
BITMAP
0000
0000
0000
0000
0000
0000
3000
0800
3800
4800
4800
3C00
0000
0000
0000
ENDCHAR
STARTCHAR C0062
ENCODING -1 98
SWIDTH 467 0
DWIDTH 7 0
BBX 16 15 0 -3
BITMAP
0000
0000
0000
0400
3800
4000
7800
4400
4400
4400
4400
3800
0000
0000
0000
ENDCHAR
STARTCHAR C0063
ENCODING -1 99
SWIDTH 467 0
DWIDTH 7 0
BBX 16 15 0 -3
BITMAP
0000
0000
0000
0000
0000
0000
7000
2000
3800
2400
2400
7800
0000
0000
0000
ENDCHAR
STARTCHAR C0064
ENCODING -1 100
SWIDTH 533 0
DWIDTH 8 0
BBX 16 15 0 -3
BITMAP
0000
0000
0000
0000
0000
0000
7E00
2400
2400
2400
4400
7E00
4200
4200
0000
ENDCHAR
STARTCHAR C0065
ENCODING -1 101
SWIDTH 467 0
DWIDTH 7 0
BBX 16 15 0 -3
BITMAP
0000
0000
0000
0000
0000
0000
3800
4400
7C00
4000
4400
3800
0000
0000
0000
ENDCHAR
STARTCHAR C0066
ENCODING -1 102
SWIDTH 600 0
DWIDTH 9 0
BBX 16 15 0 -3
BITMAP
0000
0000
0000
1400
0800
0800
3E00
4900
4900
4900
4900
3E00
0800
0800
1400
ENDCHAR
STARTCHAR C0067
ENCODING -1 103
SWIDTH 467 0
DWIDTH 7 0
BBX 16 15 0 -3
BITMAP
0000
0000
0000
0000
0000
0000
7C00
2400
2400
2000
2000
7000
0000
0000
0000
ENDCHAR
STARTCHAR C0068
ENCODING -1 104
SWIDTH 467 0
DWIDTH 7 0
BBX 16 15 0 -3
BITMAP
0000
0000
0000
0000
0000
0000
3C00
4800
4800
3800
4800
4C00
0000
0000
0000
ENDCHAR
STARTCHAR C0069
ENCODING -1 105
SWIDTH 600 0
DWIDTH 9 0
BBX 16 15 0 -3
BITMAP
0000
0000
0000
0000
0000
0000
7300
2600
2A00
2A00
3200
6700
0000
0000
0000
ENDCHAR
STARTCHAR C006A
ENCODING -1 106
SWIDTH 600 0
DWIDTH 9 0
BBX 16 15 0 -3
BITMAP
0000
0000
0000
2200
1C00
0000
7300
2600
2A00
2A00
3200
6700
0000
0000
0000
ENDCHAR
STARTCHAR C006B
ENCODING -1 107
SWIDTH 533 0
DWIDTH 8 0
BBX 16 15 0 -3
BITMAP
0000
0000
0000
0000
0000
0000
6C00
2800
3000
2800
2400
7600
0000
0000
0000
ENDCHAR
STARTCHAR C006C
ENCODING -1 108
SWIDTH 533 0
DWIDTH 8 0
BBX 16 15 0 -3
BITMAP
0000
0000
0000
0000
0000
0000
7E00
2400
2400
2400
A400
EE00
0000
0000
0000
ENDCHAR
STARTCHAR C006D
ENCODING -1 109
SWIDTH 733 0
DWIDTH 11 0
BBX 16 15 0 -3
BITMAP
0000
0000
0000
0000
0000
0000
71C0
3180
2A80
2A80
2480
64C0
0000
0000
0000
ENDCHAR
STARTCHAR C006E
ENCODING -1 110
SWIDTH 533 0
DWIDTH 8 0
BBX 16 15 0 -3
BITMAP
0000
0000
0000
0000
0000
0000
6600
2400
3C00
2400
2400
6600
0000
0000
0000
ENDCHAR
STARTCHAR C006F
ENCODING -1 111
SWIDTH 467 0
DWIDTH 7 0
BBX 16 15 0 -3
BITMAP
0000
0000
0000
0000
0000
0000
3800
4400
4400
4400
4400
3800
0000
0000
0000
ENDCHAR
STARTCHAR C0070
ENCODING -1 112
SWIDTH 533 0
DWIDTH 8 0
BBX 16 15 0 -3
BITMAP
0000
0000
0000
0000
0000
0000
7E00
2400
2400
2400
2400
6600
0000
0000
0000
ENDCHAR
STARTCHAR C0071
ENCODING -1 113
SWIDTH 533 0
DWIDTH 8 0
BBX 16 15 0 -3
BITMAP
0000
0000
0000
0000
0000
0000
6600
2400
1800
1800
2400
6600
0000
0000
0000
ENDCHAR
STARTCHAR C0072
ENCODING -1 114
SWIDTH 533 0
DWIDTH 8 0
BBX 16 15 0 -3
BITMAP
0000
0000
0000
0000
0000
0000
7C00
2200
2200
2200
2200
3C00
2000
2000
7000
ENDCHAR
STARTCHAR C0073
ENCODING -1 115
SWIDTH 467 0
DWIDTH 7 0
BBX 16 15 0 -3
BITMAP
0000
0000
0000
0000
0000
0000
3800
4400
4000
4400
4400
3800
0000
0000
0000
ENDCHAR
STARTCHAR C0074
ENCODING -1 116
SWIDTH 467 0
DWIDTH 7 0
BBX 16 15 0 -3
BITMAP
0000
0000
0000
0000
0000
0000
FE00
9200
1000
1000
1000
3800
0000
0000
0000
ENDCHAR
STARTCHAR C0075
ENCODING -1 117
SWIDTH 600 0
DWIDTH 9 0
BBX 16 15 0 -3
BITMAP
0000
0000
0000
0000
0000
0000
7700
2200
2200
1400
1400
0800
0800
5000
2000
ENDCHAR
STARTCHAR C0076
ENCODING -1 118
SWIDTH 467 0
DWIDTH 7 0
BBX 16 15 0 -3
BITMAP
0000
0000
0000
0000
0000
0000
7800
2400
3800
2400
2400
7800
0000
0000
0000
ENDCHAR
STARTCHAR C0077
ENCODING -1 119
SWIDTH 733 0
DWIDTH 11 0
BBX 16 15 0 -3
BITMAP
0000
0000
0000
0000
0000
0000
64C0
5540
1500
2E80
2480
4E40
0000
0000
0000
ENDCHAR
STARTCHAR C0078
ENCODING -1 120
SWIDTH 667 0
DWIDTH 10 0
BBX 16 15 0 -3
BITMAP
0000
0000
0000
0000
0000
0000
7380
2100
3900
2500
2500
7B80
0000
0000
0000
ENDCHAR
STARTCHAR C0079
ENCODING -1 121
SWIDTH 667 0
DWIDTH 10 0
BBX 16 15 0 -3
BITMAP
0000
0000
0000
0000
0000
0000
7300
2480
3C80
2480
2480
7300
0000
0000
0000
ENDCHAR
STARTCHAR C007A
ENCODING -1 122
SWIDTH 400 0
DWIDTH 6 0
BBX 16 15 0 -3
BITMAP
0000
0000
0000
0000
0000
0000
7800
0800
3000
0800
4800
7800
0000
0000
0000
ENDCHAR
STARTCHAR C007B
ENCODING -1 123
SWIDTH 867 0
DWIDTH 13 0
BBX 16 15 0 -3
BITMAP
0000
0000
0000
7770
2220
2220
2220
2220
2220
2220
2220
7FF0
0000
0000
0000
ENDCHAR
STARTCHAR C007D
ENCODING -1 125
SWIDTH 867 0
DWIDTH 13 0
BBX 16 15 0 -3
BITMAP
0000
0000
0000
7770
2220
2220
2220
2220
2220
2220
2220
7FF0
0010
0010
0000
ENDCHAR
STARTCHAR C007E
ENCODING -1 126
SWIDTH 667 0
DWIDTH 10 0
BBX 16 15 0 -3
BITMAP
0000
0000
0000
7380
2100
2100
2100
2100
2100
2100
2100
7F80
0080
0080
0000
ENDCHAR
ENDFONT
